<svg xmlns="http://www.w3.org/2000/svg" width="100" height="100" viewBox="0 0 100 100">
  <title>author</title>
  <path d="M60.61,70.06c6.16-7.53,16.64-9.74,25.89-8.29l1.93.3-1.18,1.56c-5.89,7.79-16.76,10.2-26,8.31l-1.9-.39,1.23-1.5Z"/>
  <path d="M63,14.66c6.49,5.22,10.36,13.86,8.75,22.18l-.35,1.82-1.49-1.1c-6.65-4.92-11.15-14.06-8.77-22.31l.49-1.69L63,14.66Z"/>
  <path d="M89.74,41.43c-1.27,9-7.77,18.23-17,20.28L71,62.08l.31-1.73c1.65-9.08,8-17.38,16.94-20.2L90,39.59l-.26,1.84Z"/>
  <path d="M80.08,21.55a24.48,24.48,0,0,1-2.91,24.37l-1.24,1.61-.77-1.88c-3.24-8-2.43-17.5,2.92-24.35l1.21-1.56.78,1.81Z"/>
  <path d="M21.92,21.29c5.35,6.85,6.16,16.4,2.92,24.35l-.77,1.88-1.24-1.61a24.48,24.48,0,0,1-2.91-24.37l.78-1.81,1.21,1.56Z"/>
  <path d="M38.72,72c-9.21,1.89-20.08-.52-26-8.31l-1.18-1.56,1.93-.3c9.25-1.45,19.73.76,25.89,8.29l1.23,1.5-1.9.39Z"/>
  <path d="M38.85,15.25c2.38,8.26-2.11,17.39-8.77,22.31l-1.49,1.1-.35-1.82c-1.61-8.32,2.27-17,8.75-22.18l1.37-1.1.49,1.69Z"/>
  <path d="M11.77,40.15c9,2.83,15.29,11.13,16.94,20.2L29,62.08,27.3,61.7c-9.27-2-15.77-11.23-17-20.28L10,39.59l1.77.56Z"/>
  <path d="M56.5,78.46a29.51,29.51,0,0,0,4.88,4.37l1.25.84-1.12,1-1.37,1.25-.56.52-.7-.3c-4.31-1.86-5.53-6.49-8.88-8.67-3.35,2.18-4.57,6.81-8.88,8.67l-.7.3-.56-.52-1.37-1.25-1.12-1,1.24-.84a29.54,29.54,0,0,0,4.88-4.37A25.28,25.28,0,0,1,37,81.11c-4.2.71-8.7,1-12.69-.78l-1.93-.84,1.73-1.2c3.95-2.72,8.19-5.26,13.1-5.65a41.42,41.42,0,0,1,11.57.76h0l0,0a3.5,3.5,0,0,0,2.18,0l0,0h.05a41.47,41.47,0,0,1,11.58-.76c4.9.39,9.14,2.93,13.08,5.65l1.73,1.2-1.93.84c-4,1.74-8.49,1.49-12.7.78a25.26,25.26,0,0,1-6.46-2.64Z"/>
</svg>
