<?xml version="1.0" encoding="UTF-8"?>
<svg width="100px" height="100px" viewBox="0 0 100 100" version="1.1" xmlns="http://www.w3.org/2000/svg" xmlns:xlink="http://www.w3.org/1999/xlink">
    <!-- Generator: Sketch 41.2 (35397) - http://www.bohemiancoding.com/sketch -->
    <title>Artboard</title>
    <desc>Created with Sketch.</desc>
    <defs></defs>
    <g id="Page-1" stroke="none" stroke-width="1" fill="none" fill-rule="evenodd">
        <g id="Artboard" fill="#000000">
            <g id="noun_750495_cc" transform="translate(10.000000, 11.000000)">
                <path d="M29.971831,37.4084507 C22.3098592,34.3661972 13.1830986,35.943662 6.98591549,42.1408451 C-1.35211268,50.4788732 -1.35211268,64 6.98591549,72.3380282 C15.3239437,80.6760563 28.8450704,80.6760563 37.1830986,72.3380282 C43.2676056,66.2535211 44.9577465,57.3521127 42.028169,49.8028169 L47.6619718,44.1690141 L49.3521127,34.4788732 L59.0422535,32.7887324 L62.3098592,29.5211268 L64,19.8309859 L73.6901408,18.1408451 L78.9859155,12.8450704 L78.8732394,0.676056338 L66.7042254,0.563380282 L29.971831,37.4084507 Z M27.0422535,62.3098592 C24.3380282,65.0140845 19.943662,65.0140845 17.2394366,62.3098592 C14.5352113,59.6056338 14.5352113,55.2112676 17.2394366,52.5070423 C19.943662,49.8028169 24.3380282,49.8028169 27.0422535,52.5070423 C29.7464789,55.2112676 29.7464789,59.6056338 27.0422535,62.3098592 Z" id="Shape"></path>
            </g>
        </g>
    </g>
</svg>