<svg xmlns="http://www.w3.org/2000/svg" width="100" height="100" viewBox="0 0 100 100">
  <title>delete</title>
  <path d="M23.33,87.79A2.22,2.22,0,0,0,25.56,90H74.44a2.21,2.21,0,0,0,2.22-2.21V30a2.22,2.22,0,0,0-2.22-2.21H25.56A2.21,2.21,0,0,0,23.33,30Zm57.78-71.1a2.22,2.22,0,0,0-2.23-2.24H66.11a1.59,1.59,0,0,1-.93-.38l-2.49-2.49A6.21,6.21,0,0,0,58.9,10H41.1a6.12,6.12,0,0,0-3.79,1.58l-2.49,2.49a1.56,1.56,0,0,1-.93.38H21.12a2.22,2.22,0,0,0-2.23,2.24v4.4a2.22,2.22,0,0,0,2.21,2.24H78.9a2.22,2.22,0,0,0,2.21-2.24Z"/>
</svg>
