<svg xmlns="http://www.w3.org/2000/svg" width="100" height="100" viewBox="0 0 100 100">
  <title>developer</title>
  <path d="M88.53,77.29,62.88,53.42a3.66,3.66,0,0,0-1.21-.49A10.38,10.38,0,0,1,56.37,50L42.06,35.43a.3.3,0,0,1,0-.43,1.22,1.22,0,0,0,0-1.73l-3.41-3.41a4,4,0,0,1-1.15-2.2C36.16,19,45.36,13.75,47.69,13.49a.86.86,0,0,0-.07-1.71l-.87-.06c-8.82-.65-20.83,10.2-26.58,16.94a4.53,4.53,0,0,0-1.09,2.8L19,33.08a2.58,2.58,0,0,1-1.18,2.28,3.11,3.11,0,0,1-2.79.27c-.55-.2-1.17-.33-1.45-.06l-3.21,3.21a1.39,1.39,0,0,0,0,2l7,7a1.39,1.39,0,0,0,2,0l3.21-3.21a1.39,1.39,0,0,0,0-2A1.71,1.71,0,0,1,22.1,41,3.49,3.49,0,0,1,23,39.26a10.14,10.14,0,0,1,4.68-2.87,4.13,4.13,0,0,1,3.89,1.11l3.14,3.14a1.22,1.22,0,0,0,1.73,0l.18-.18a.31.31,0,0,1,.43,0L51.7,54.68A10.54,10.54,0,0,1,54.61,60a3.66,3.66,0,0,0,.49,1.18L79,86.85c1.56,1.56,3.71,1.94,4.81.84l5.59-5.59C90.47,81,90.09,78.85,88.53,77.29Z"/>
</svg>
