<svg xmlns="http://www.w3.org/2000/svg" width="100" height="100" viewBox="0 0 100 100">
  <title>save</title>
  <path d="M10.73,50V10H70l9.62,9.62,9.62,9.62V90H10.73ZM73.57,80.58A9.8,9.8,0,0,0,75.22,80a6.14,6.14,0,0,0,2-1.48A7.31,7.31,0,0,0,79.54,73a6.9,6.9,0,0,0-.8-3.42,6.14,6.14,0,0,0-1.48-2,7.31,7.31,0,0,0-5.45-2.29,6.9,6.9,0,0,0-3.42.8,6.14,6.14,0,0,0-2,1.48A7.31,7.31,0,0,0,64.07,73a6.9,6.9,0,0,0,.8,3.42,6,6,0,0,0,1.48,2,7.48,7.48,0,0,0,7.22,2.11Zm-31-55.74V17.69H22V32H42.61Zm17.71,0V17.69h-10V32h10Z"/>
</svg>
