<?xml version="1.0" encoding="UTF-8"?>
<svg width="100px" height="100px" viewBox="0 0 100 100" version="1.1" xmlns="http://www.w3.org/2000/svg" xmlns:xlink="http://www.w3.org/1999/xlink">
    <!-- Generator: Sketch 41.2 (35397) - http://www.bohemiancoding.com/sketch -->
    <title>Artboard</title>
    <desc>Created with Sketch.</desc>
    <defs></defs>
    <g id="Page-1" stroke="none" stroke-width="1" fill="none" fill-rule="evenodd">
        <g id="Artboard" fill="#000000">
            <path d="M79.9093894,68.8130066 C93.3635369,55.3588591 93.3635369,33.5447581 79.9093894,20.0906106 C66.4552419,6.63646313 44.6420298,6.63646313 31.1869934,20.0906106 C20.0830551,31.1945489 18.153288,47.9891223 25.3781368,61.0823829 C25.1994711,61.2281598 25.0261387,61.3837145 24.8599174,61.5499358 L24.8599174,61.5499358 C22.8741507,63.5357026 22.3799312,66.4716863 23.377259,68.9303393 L11.5933245,80.7133849 C9.46889184,82.8378176 9.46889184,86.2822429 11.5933245,88.4066755 C13.7177571,90.5311082 17.1621824,90.5311082 19.2866151,88.4066755 L31.0705496,76.622741 C33.5292026,77.6200688 36.4651863,77.1267382 38.4509531,75.1400826 L38.4509531,75.1400826 C38.6171743,74.9738613 38.772729,74.8005289 38.918506,74.6218632 C52.0108777,81.846712 68.8054511,79.9169449 79.9093894,68.8130066 Z M36.5727413,63.4272587 C26.1096883,52.9642058 26.1096883,35.9385226 36.5727413,25.4754696 C47.0357942,15.0124166 64.0614774,15.0124166 74.5245304,25.4754696 C84.9875834,35.9385226 84.9875834,52.9642058 74.5245304,63.4272587 C64.0614774,73.8903117 47.0357942,73.8912006 36.5727413,63.4272587 Z" id="Shape"></path>
        </g>
    </g>
</svg>