<svg xmlns="http://www.w3.org/2000/svg" width="100" height="100" viewBox="0 0 100 100">
  <title>translator</title>
  <g>
    <path d="M47.54,57.08c-6.46-6.31-12.15-11.85-15.38-24.62H54.77V22.92H32.31V10.31H22.62V23.08H0v9.54H23.08a29.21,29.21,0,0,1-.46,3.23C19.38,48.46,15.54,56.46,0,64.31l3.23,9.54C18,66,25.69,56.15,29.08,45.23c3.23,8.31,8.77,15.08,15.08,21.23Z"/>
    <path d="M77.38,26.15H64.46L41.85,89.69h9.69L58,70.62H83.85l6.46,19.08H100ZM61.23,61.08l9.69-25.38,9.69,25.54-19.38-.15Z"/>
  </g>
</svg>
